<svg xmlns="http://www.w3.org/2000/svg" width="40" height="39.999" viewBox="0 0 40 39.999">
  <g id="Grupo_7216" data-name="Grupo 7216" transform="translate(-198.126 -239.125)">
    <rect id="Retângulo_3290" data-name="Retângulo 3290" width="40" height="39.999" transform="translate(198.126 239.125)" fill="none"/>
    <g id="Grupo_7215" data-name="Grupo 7215" transform="translate(211.445 249.645)">
      <path id="Caminho_8575" data-name="Caminho 8575" d="M238.338,254.867a.911.911,0,0,1-.285.662l-11.936,11.73a3.678,3.678,0,0,1-5.139,0l-3.858-3.786a.952.952,0,0,1-.014-1.338.915.915,0,0,1,.669-.285.9.9,0,0,1,.669.27l3.858,3.786a1.774,1.774,0,0,0,2.484,0l11.943-11.722a.932.932,0,0,1,.662-.278h.007a.973.973,0,0,1,.669.285A.929.929,0,0,1,238.338,254.867Z" transform="translate(-216.839 -253.906)" fill="#5a4ca7" stroke="#5a4ca7" stroke-width="1"/>
    </g>
  </g>
</svg>
